<svg version="1.1" id="Layer_1" xmlns="http://www.w3.org/2000/svg" xmlns:xlink="http://www.w3.org/1999/xlink" x="0px" y="0px"
	 width="100%" viewBox="0 0 928 1024" enable-background="new 0 0 928 1024" xml:space="preserve">
<path fill="#000000" opacity="1.000000" stroke="none" 
	d="
M652.533081,813.058899 
	C665.603027,809.125183 678.678833,806.201965 690.933716,801.247925 
	C701.451355,796.996033 711.642944,791.652893 721.955688,786.798096 
	C731.899292,782.116943 740.251831,774.704895 750.818604,771.206055 
	C755.058167,769.802246 758.281250,766.062683 761.462524,763.148193 
	C768.351440,756.837158 777.161926,753.935486 784.459045,748.443237 
	C790.900269,743.595154 798.009155,739.625610 804.472717,734.576660 
	C806.846985,736.333191 805.773743,737.873962 804.380676,739.144470 
	C798.920288,744.124084 794.408020,750.076355 787.350586,753.388000 
	C783.771790,755.067383 781.169800,758.724243 777.772522,761.174866 
	C768.484497,767.874329 759.031738,774.412109 749.483521,780.635437 
	C736.753296,788.932800 723.249512,796.119690 709.703674,803.190186 
	C700.169495,808.166687 690.143494,811.946838 680.640869,816.919800 
	C675.728271,819.490723 669.885498,820.294800 664.451233,821.856445 
	C649.103271,826.266968 633.487183,829.631653 617.487244,829.047546 
	C598.076721,828.338989 579.217346,824.668579 561.847900,815.216370 
	C558.963501,813.646667 555.851990,810.897827 552.142273,814.469116 
	C550.748962,815.810425 548.710938,814.989441 547.230042,813.513672 
	C542.590149,808.889343 536.772766,805.896545 531.482666,802.167664 
	C526.975159,798.990417 521.783508,796.216919 521.575073,789.463684 
	C521.511719,787.413025 519.425171,787.226440 517.700073,787.150391 
	C514.864929,787.025330 512.628784,785.787598 510.819824,783.612183 
	C504.277893,775.744629 496.898682,768.418640 491.433960,759.866760 
	C488.031799,754.542603 483.276306,750.232544 480.478577,744.900452 
	C476.821838,737.931396 471.393005,732.162720 468.339081,724.802734 
	C466.155975,719.541687 462.871094,714.777588 460.547943,709.429626 
	C457.855377,703.231323 456.008789,696.823303 453.559418,690.604065 
	C451.254303,684.751099 448.244720,679.233887 447.284546,672.856506 
	C446.235931,665.891235 444.092468,659.166016 441.699463,652.537415 
	C440.593262,649.473145 440.549347,646.322571 441.243866,643.189758 
	C441.538696,641.859802 441.729797,640.626770 441.390656,639.273315 
	C439.129517,630.249695 436.733398,628.628479 428.108459,632.390076 
	C412.615570,639.147156 396.143646,643.337952 380.864075,650.492432 
	C371.847260,654.714294 362.383606,657.693298 353.252655,661.573425 
	C343.530853,665.704834 333.695496,669.561340 324.137299,674.111389 
	C320.812317,675.694214 320.008087,677.783142 320.360809,681.231628 
	C322.446411,701.620850 328.233429,721.390076 330.410217,741.766846 
	C330.702423,744.501831 331.888916,747.259644 333.164154,749.749268 
	C337.086609,757.407227 336.314850,766.352173 340.049072,774.031555 
	C345.055878,784.328064 349.018768,795.082642 353.547272,805.583252 
	C363.735840,829.208435 378.774872,849.578491 394.985718,869.066650 
	C406.181824,882.526184 419.408173,894.026978 434.295166,903.692993 
	C439.012878,906.756165 443.901703,909.887939 448.678619,912.875366 
	C453.435333,915.850159 459.451385,916.852722 464.961029,918.573608 
	C476.260712,922.102783 488.100586,919.893372 499.580444,921.697449 
	C502.883606,922.216492 505.189819,918.959351 508.393738,918.620605 
	C527.127502,916.639771 542.638550,906.945007 558.476685,897.899597 
	C566.448425,893.346802 573.552246,887.881104 579.802246,881.203735 
	C581.324524,879.577393 583.289978,879.484741 585.824768,880.837891 
	C584.545471,885.348022 581.842041,889.502502 578.354553,891.884216 
	C574.806580,894.307373 571.478210,896.955078 568.030640,899.494141 
	C557.076965,907.561279 546.140198,915.772949 533.880188,921.738586 
	C527.856506,924.669739 521.156189,926.324158 514.635437,928.088440 
	C507.814880,929.933838 500.889954,931.505798 493.921295,932.656006 
	C488.382202,933.570251 482.699738,934.132507 477.096436,934.027100 
	C467.165497,933.840393 457.444824,931.714905 448.035339,928.676880 
	C439.336395,925.868347 431.512421,921.031067 423.905182,916.053406 
	C406.503235,904.666443 390.720856,891.388184 377.793030,874.950562 
	C371.131470,866.480530 363.985413,858.329468 358.023071,849.390747 
	C353.109955,842.024902 347.463287,835.080200 344.372803,826.396729 
	C342.827850,822.055847 340.160217,817.822205 338.006378,813.531494 
	C331.503479,800.577209 328.029114,786.529114 322.964874,773.071533 
	C318.190063,760.383301 316.600647,747.088196 313.147369,734.179565 
	C310.176544,723.074097 309.177124,711.586609 306.934143,700.332520 
	C305.924896,695.268372 305.175629,689.835022 305.408295,683.838257 
	C299.854462,684.798035 296.003967,688.183533 291.213959,689.231079 
	C284.171051,690.771301 278.485657,695.605408 271.953827,698.497253 
	C264.544312,701.777710 257.126648,705.051208 249.830307,708.571960 
	C244.027863,711.371765 238.142792,714.138672 232.758514,717.634888 
	C224.336578,723.103699 214.960556,726.525940 206.113190,731.059387 
	C192.962769,737.797791 179.244858,743.340698 166.302277,750.554688 
	C156.784485,755.859680 146.750931,760.254150 136.857071,764.860779 
	C133.874298,766.249634 130.622467,767.109009 127.433159,767.991455 
	C124.631531,768.766785 122.525719,767.616760 121.360016,764.957092 
	C120.281334,762.495850 120.051872,760.070496 122.452682,758.184387 
	C131.366028,751.182312 140.847031,744.337463 151.192322,740.495239 
	C167.232758,734.537781 182.293533,726.496277 198.216385,720.331238 
	C206.884399,716.975098 215.530624,712.995728 224.030182,708.920166 
	C240.221359,701.156311 256.080902,692.640686 273.028381,686.443420 
	C282.045319,683.146118 290.655060,678.741943 299.479523,674.908630 
	C303.247498,673.271790 303.177734,670.716431 302.841187,666.954834 
	C302.159393,659.334473 300.412567,651.841248 300.836884,642.893921 
	C291.374908,649.766235 286.177551,643.588562 280.803711,637.964111 
	C278.745056,638.321228 277.327728,639.765503 276.815521,641.399841 
	C273.735687,651.226074 265.465424,654.236023 256.898346,656.719604 
	C250.834320,658.477600 243.382416,652.924011 242.773605,646.585693 
	C242.215530,640.775513 241.285172,635.267090 244.209747,629.369080 
	C246.201401,625.352478 245.126419,620.028015 246.378403,615.253479 
	C248.695938,606.415283 251.072708,597.333069 255.568283,589.707092 
	C260.032501,582.134155 265.429443,574.220764 274.603577,570.668274 
	C282.362701,567.663818 288.862823,571.939941 290.110565,580.197815 
	C291.567993,589.843445 288.878082,599.268066 289.510040,608.831665 
	C289.839844,613.822754 292.254639,618.357056 292.236786,623.424561 
	C292.231171,625.015259 293.432159,626.543152 296.617188,626.398315 
	C296.116302,620.122437 300.418121,614.840271 299.168335,607.794922 
	C297.730927,599.691772 298.794342,591.072571 296.695190,583.086060 
	C292.853790,568.471130 297.308533,554.096130 296.860535,539.615234 
	C296.741150,535.755676 297.451721,532.342163 291.580414,533.956177 
	C287.988007,534.943665 285.019592,532.523804 282.613495,530.382385 
	C276.830688,525.235535 271.161469,527.009216 265.289551,529.834351 
	C254.061569,535.236511 242.367706,539.522095 230.875854,544.293945 
	C218.001602,549.639832 205.513367,555.909119 192.791626,561.630859 
	C184.522598,565.349976 176.186371,568.920837 168.238922,573.303345 
	C157.689880,579.120483 146.451401,583.582153 136.258911,590.142700 
	C129.770432,594.319092 122.740059,597.663757 115.894218,601.270386 
	C112.643692,602.982788 110.486359,605.978027 107.220276,607.799744 
	C98.419868,612.708435 89.626770,617.750977 81.441017,623.595215 
	C76.611130,627.043518 71.388176,629.958252 66.861389,633.835571 
	C66.609390,634.051392 66.334465,634.249451 66.045563,634.411987 
	C62.909840,636.176025 58.856876,638.068176 56.602318,634.833740 
	C54.561874,631.906494 58.140354,629.448608 60.576492,627.350403 
	C65.598740,623.024841 69.513451,617.462891 75.272522,613.951538 
	C80.588631,610.710388 85.648895,606.976685 91.741295,605.173279 
	C92.523735,604.941711 93.374268,604.594604 93.944710,604.043579 
	C105.356133,593.021606 120.632828,588.354980 133.671707,579.999329 
	C136.157898,578.406067 138.344437,576.427063 140.932495,574.911316 
	C147.263687,571.203247 154.151764,568.200439 160.730789,565.702698 
	C167.485001,563.138428 173.232147,560.103516 178.232056,555.260498 
	C180.171524,553.381897 182.602905,553.844666 184.771271,553.250916 
	C195.731247,550.249512 205.490845,544.488281 215.744873,539.906372 
	C226.242783,535.215454 237.426331,532.491638 247.769073,527.073181 
	C254.363052,523.618713 262.134888,521.626160 269.330322,518.822998 
	C272.588226,517.553772 273.459259,515.287903 273.405426,512.273682 
	C273.242035,503.126221 277.881592,496.103516 283.922394,490.053314 
	C286.112549,487.859711 289.680573,486.950775 293.095306,486.594269 
	C295.063660,486.388733 297.521240,486.187958 297.393738,482.741730 
	C294.598389,482.420898 292.325806,483.505798 290.100464,484.334045 
	C279.230835,488.379547 268.482910,492.762695 257.550476,496.626099 
	C243.679749,501.527924 229.616104,505.883942 215.745804,510.786987 
	C207.451920,513.718811 199.821823,518.293213 191.450592,521.117126 
	C170.833557,528.072144 151.290192,537.512085 131.950607,547.342590 
	C114.961754,555.978271 97.160751,562.963379 80.708374,572.674438 
	C78.154160,574.182129 75.606956,575.701782 73.045700,577.197449 
	C69.951805,579.004150 66.991074,579.430237 64.869820,575.845215 
	C62.798923,572.345520 64.679176,569.648743 67.328629,567.677795 
	C69.709816,565.906494 72.578087,564.805420 75.149475,563.271179 
	C81.005295,559.777161 86.609596,555.799500 92.680206,552.741089 
	C103.979225,547.048645 115.740349,542.257812 126.938866,536.385498 
	C142.001068,528.487183 158.148178,523.259155 173.674622,516.519531 
	C183.965851,512.052429 194.580994,508.338165 204.936432,503.960754 
	C209.826767,501.893585 215.130722,499.382996 220.854721,499.323700 
	C221.175079,499.320374 221.528076,499.225098 221.808395,499.069183 
	C232.904343,492.898346 245.168198,489.806519 257.233643,486.565796 
	C268.838257,483.448853 279.480957,477.985382 290.886047,474.514771 
	C295.800293,473.019409 298.073730,469.886383 297.895264,464.500854 
	C297.413055,449.951477 299.358032,435.411621 299.107086,420.927338 
	C298.886475,408.198090 300.802979,395.581635 300.232056,382.524963 
	C296.221222,383.148590 293.150848,385.233307 290.124603,386.984528 
	C274.204651,396.196930 258.517670,405.812042 242.596390,415.022064 
	C223.485962,426.076904 204.075409,436.602875 184.929184,447.604584 
	C171.982834,455.043732 158.114120,460.859009 144.914124,467.882080 
	C136.158218,472.540649 128.224747,478.871826 119.231857,482.917786 
	C112.082214,486.134460 105.538147,490.203125 98.721001,493.887695 
	C87.509460,499.947357 76.333588,506.079742 65.673195,513.069763 
	C62.243801,515.318420 58.429260,516.463684 54.707329,517.767029 
	C49.950584,519.432739 47.194363,516.179749 48.401100,511.163055 
	C49.670456,505.886047 54.213917,503.493103 57.910931,500.730042 
	C61.518864,498.033539 66.042740,496.369568 70.381561,494.888031 
	C77.335396,492.513641 82.262444,486.484650 89.589218,484.823761 
	C99.938850,482.477692 108.283272,475.662292 117.365875,470.831177 
	C124.843353,466.853821 133.407486,465.145538 140.138672,459.788452 
	C140.777206,459.280243 141.770477,459.157776 142.299973,458.581482 
	C150.630005,449.514404 162.225067,445.932922 172.795288,440.809265 
	C186.256805,434.284149 199.510239,427.382538 212.629517,420.233063 
	C221.950851,415.153320 230.819092,409.248505 240.041977,403.978607 
	C243.774963,401.845642 247.940308,400.480316 251.861115,398.662628 
	C259.101227,395.306152 264.905914,389.721436 271.753784,385.730499 
	C274.604218,384.069275 277.480652,382.726318 280.533508,381.448303 
	C287.473145,378.543121 294.056305,374.610901 299.679993,369.426544 
	C300.412201,368.751526 300.734467,367.303925 300.734344,366.214233 
	C300.733215,357.557648 301.743439,348.986542 302.665497,340.402557 
	C302.841431,338.764648 303.006622,336.938568 302.481506,335.443481 
	C299.629425,327.322968 301.028748,319.828217 304.858673,312.349060 
	C306.611633,308.925873 305.696106,304.846558 305.701752,301.093964 
	C305.716217,291.455597 307.588165,282.005676 308.401489,272.455078 
	C309.748657,256.635712 312.634735,240.953262 314.359314,225.157135 
	C315.017395,219.129471 316.668335,213.134247 315.313263,206.850403 
	C314.286133,202.087326 316.188995,197.317154 317.164093,192.635010 
	C319.134644,183.173523 320.169861,173.610718 320.763031,163.994537 
	C321.001556,160.127701 321.314606,156.387909 323.350159,152.939713 
	C324.086212,151.692764 324.755920,150.115189 324.683929,148.728577 
	C324.077423,137.046341 326.969208,125.751862 328.282227,114.286240 
	C328.373749,113.487114 328.494965,112.524246 328.154999,111.869942 
	C325.923370,107.574638 327.426483,104.854012 331.235962,102.292549 
	C334.010864,100.426727 336.717133,98.541138 339.884521,99.948822 
	C343.282898,101.459167 345.674774,104.068153 345.965149,108.334564 
	C346.317139,113.506470 346.613403,118.607758 345.539581,123.733383 
	C342.963165,136.031204 345.036621,148.247528 346.562592,160.420563 
	C347.664429,169.210236 347.568481,177.946152 346.922485,186.724686 
	C346.744354,189.145462 344.733276,190.255127 342.976562,192.931778 
	C342.593964,187.017151 340.601135,182.635788 339.188324,177.691299 
	C335.659576,179.197205 334.685333,181.880676 334.493744,184.633743 
	C333.222290,202.905807 328.589355,220.677673 326.565521,238.830704 
	C325.340912,249.815582 324.657379,260.883759 322.871216,271.773529 
	C321.955414,277.356750 320.786652,282.916779 321.249634,288.486542 
	C321.862366,295.858032 319.004120,302.501556 317.335419,310.965851 
	C323.144531,307.348938 328.488403,305.490692 333.494202,302.962128 
	C345.197998,297.050110 357.268738,292.945953 370.544769,292.250305 
	C377.247925,291.899048 383.707184,289.849823 390.710114,290.647278 
	C398.166199,291.496338 403.359253,295.174255 407.907928,300.413910 
	C410.057190,302.889648 407.826874,309.788757 403.810944,313.602417 
	C396.678894,320.375153 389.106628,326.582275 380.724548,331.793518 
	C369.877228,338.537445 358.698700,344.779785 348.495819,352.513214 
	C346.255310,354.211426 342.267517,353.723175 341.817749,357.947968 
	C347.440796,363.443268 352.537170,369.430756 351.553314,378.366730 
	C356.701416,377.013977 360.390076,374.755737 363.851501,371.736664 
	C371.399475,365.153290 380.321442,363.417114 390.023041,365.461548 
	C395.229980,366.558777 398.869904,369.943817 401.776245,374.131683 
	C403.552551,376.691223 404.703857,379.493774 401.761383,382.170807 
	C401.524414,382.386475 401.230042,382.739410 401.249664,383.007477 
	C401.803528,390.560974 395.709015,391.047119 390.906189,393.898865 
	C380.431000,400.118561 369.154846,404.425629 358.237793,409.576263 
	C355.714020,410.766998 353.050354,411.661194 349.992554,412.873596 
	C354.382385,416.193451 359.113678,416.594391 364.051117,416.896301 
	C372.063934,417.386230 379.484100,414.169281 387.324951,413.691559 
	C390.958740,413.470184 393.258575,411.101074 394.941040,407.985596 
	C399.648773,399.268066 404.003571,390.364349 410.906616,382.992157 
	C419.216156,374.117828 426.642212,364.523926 436.478149,356.989777 
	C443.864777,351.331726 451.230225,346.168732 460.142670,343.435333 
	C464.543182,342.085785 469.003906,342.766571 473.750458,343.473938 
	C474.066193,338.734009 472.999725,334.393982 472.087524,330.072418 
	C469.114502,315.987885 467.123108,301.872742 466.730408,287.383911 
	C466.418854,275.889496 465.970764,264.365295 467.584229,253.086685 
	C468.876495,244.053528 467.949951,234.418655 472.768494,226.043945 
	C474.292999,223.394348 473.301239,220.508362 473.663757,217.780838 
	C474.191559,213.810043 476.054840,210.373688 476.720306,206.544876 
	C477.630463,201.307587 481.555115,198.836761 485.963226,196.972305 
	C488.843262,195.754166 491.090363,196.638550 492.680878,199.399216 
	C496.427124,205.901505 498.768127,212.790848 500.598419,220.138458 
	C502.489807,227.731186 503.915619,235.170853 504.659637,242.987732 
	C505.505066,251.870132 506.591064,260.680115 506.081238,269.605164 
	C505.468292,280.335175 506.156219,291.169312 504.141876,301.780151 
	C502.708618,309.330048 502.138275,317.092133 499.071564,324.300415 
	C497.696198,327.533203 496.756927,330.906006 499.153076,334.225159 
	C501.334717,334.172302 501.577209,332.276245 502.218079,330.852112 
	C506.124420,322.171509 512.029907,314.754028 517.301819,306.941315 
	C521.831238,300.228882 527.422607,294.238831 530.959229,286.848358 
	C531.171997,286.403748 531.384399,285.819672 531.765625,285.615570 
	C540.461182,280.960541 544.261414,271.574615 551.255493,265.394592 
	C562.684753,255.295624 573.735840,244.935364 588.882385,239.579590 
	C599.218750,235.924683 608.989929,234.158844 618.779907,238.315292 
	C625.762451,241.279831 632.682983,244.641586 639.216980,249.013596 
	C649.874878,256.144867 657.212036,266.234406 666.056213,274.965851 
	C667.210144,276.105072 667.102417,277.863281 668.022705,278.917664 
	C674.314941,286.126831 675.205688,296.055206 680.667297,303.674957 
	C683.953247,308.259308 683.893982,314.091370 686.048462,319.122040 
	C686.380005,319.896423 685.899292,320.786285 685.048279,321.180664 
	C683.940491,321.694092 683.208801,321.092346 682.502991,320.263214 
	C680.522461,317.936707 680.568787,314.646484 678.981689,312.296570 
	C671.414124,301.091888 664.397522,289.358337 655.595093,279.189087 
	C647.054688,269.322632 638.462341,258.806366 625.073975,254.552139 
	C619.419250,252.755325 614.347656,249.243500 608.237976,248.736832 
	C607.081848,248.640961 605.803101,248.218002 604.783813,248.556656 
	C595.086365,251.778503 584.878662,253.564819 576.157227,259.492645 
	C564.184387,267.630310 554.040527,277.849579 544.636230,288.580658 
	C537.858704,296.314453 531.789978,304.821259 525.836548,313.365479 
	C515.707581,327.902466 507.425476,343.443451 498.213898,358.469666 
	C494.400513,364.690216 496.369690,370.532684 497.264587,376.867340 
	C498.330505,384.412354 502.982269,390.085510 505.897430,397.065399 
	C512.292236,396.009827 518.856445,394.926331 525.689514,393.798431 
	C526.638123,391.169983 527.552185,387.690582 531.907349,390.887451 
	C532.716797,391.481628 533.387939,390.932129 534.142090,390.487091 
	C540.681580,386.627991 548.127991,385.584930 555.229370,383.398376 
	C561.295593,381.530640 567.269836,378.983856 573.293762,376.752869 
	C575.334473,375.997101 577.171509,375.273254 579.393188,375.155884 
	C587.727783,374.715454 595.329468,371.116791 603.303162,369.116730 
	C609.266296,367.620972 615.138062,366.201385 621.260376,365.498383 
	C624.789673,365.093140 628.181641,363.481140 631.629272,362.393066 
	C631.937866,362.295654 632.220032,361.880585 632.483582,361.908203 
	C641.350037,362.836884 648.189575,356.596100 656.382202,355.188660 
	C657.802612,354.944672 659.352783,354.599396 660.584839,355.862732 
	C660.871033,357.887054 659.547852,358.828461 658.094116,359.050232 
	C650.462524,360.214478 643.892883,365.292908 635.754822,364.757355 
	C630.746704,364.427795 626.339478,367.574524 621.799194,369.040436 
	C610.025574,372.841827 597.937805,375.699615 586.347595,379.973236 
	C567.159302,387.048462 547.228394,391.841461 528.194519,399.363617 
	C523.576782,401.188538 518.661072,402.248383 513.917053,403.768463 
	C510.517151,404.857880 508.482727,406.305023 510.597168,410.619690 
	C512.307617,414.110077 513.957275,417.718994 514.907715,421.666534 
	C515.735107,425.102844 518.215698,428.097443 522.122192,429.297424 
	C521.252686,436.428802 526.286987,440.748474 529.787537,445.607330 
	C534.369690,451.967529 539.147156,458.185883 543.551025,464.682434 
	C544.932007,466.719727 546.601074,468.556152 548.958801,469.737457 
	C552.255615,471.389221 552.727844,472.406830 553.603760,477.430054 
	C549.605408,477.965179 546.850037,475.977448 545.003418,472.933105 
	C542.471497,468.759033 537.953186,467.178497 534.285645,464.699463 
	C532.630188,463.580505 531.003235,462.851196 529.717407,461.065186 
	C525.009094,454.525513 518.625916,449.336395 514.787537,442.020844 
	C513.278809,439.145416 510.427216,437.038025 506.440033,436.652557 
	C508.056915,433.184631 506.642029,430.716278 504.756195,428.267822 
	C501.690369,424.287384 499.934265,419.562195 497.914978,415.044678 
	C496.256378,411.334137 493.693146,410.398529 490.316986,411.456696 
	C486.557709,412.634979 482.941254,414.286530 479.309875,415.842377 
	C478.441040,416.214630 477.289276,416.885956 477.063721,417.653625 
	C474.500275,426.378357 472.945099,435.379822 469.602020,444.292358 
	C480.589020,439.230743 492.373444,439.670654 503.436432,435.048462 
	C503.767120,439.575104 501.775269,440.364441 500.156555,440.740448 
	C490.033508,443.092010 481.067291,448.452972 471.277466,451.610229 
	C468.134125,452.623932 466.819305,454.479736 466.109741,457.552063 
	C461.534302,477.364471 457.704742,497.268646 455.078064,517.476318 
	C453.538727,529.318726 451.694153,541.182068 450.914032,553.053955 
	C450.167450,564.415649 448.463074,575.809570 449.612640,587.289429 
	C450.089386,592.050171 452.646759,592.687073 455.942719,590.564636 
	C461.241180,587.152588 466.697937,584.044189 472.078918,580.800415 
	C475.058014,579.004517 477.151764,576.323181 475.404358,571.235413 
	C473.608307,566.006042 473.582184,559.902466 473.529175,554.047058 
	C473.388458,538.498901 477.701233,524.205933 485.637451,511.160889 
	C489.598175,504.650482 495.420135,499.537750 503.855133,498.667786 
	C508.638092,498.174438 512.792908,499.042633 516.125427,502.526428 
	C518.688232,505.205505 521.007019,506.362640 524.842224,504.381165 
	C529.129211,502.166321 532.601868,504.320312 534.439758,508.984924 
	C536.441345,514.064941 538.848511,518.980164 539.530823,524.500610 
	C540.402466,531.552551 538.531494,538.347839 537.460999,545.178772 
	C537.069946,547.674561 536.823608,550.030762 537.079285,552.496765 
	C537.233582,553.985107 537.133911,555.732605 538.908813,556.233582 
	C540.567627,556.701782 541.649414,555.332642 542.723633,554.312134 
	C548.952209,548.394775 550.845886,537.801880 547.451050,529.997192 
	C543.595703,521.133728 543.662354,511.599426 543.773132,502.209778 
	C543.816223,498.559967 547.673767,497.427338 550.727722,496.737457 
	C553.502441,496.110657 555.796570,497.088379 557.175659,500.087952 
	C560.274780,506.828979 561.171021,514.094299 562.656128,521.223267 
	C563.898560,527.187134 564.937439,533.195129 566.272705,539.137268 
	C566.871826,541.803284 568.624817,544.114563 571.168152,544.945679 
	C572.915649,545.516663 575.262756,543.864319 575.420166,542.244568 
	C575.743225,538.920532 577.154541,535.910278 577.085327,532.398682 
	C576.903687,523.173035 571.760437,514.773071 572.713135,505.558746 
	C573.243591,500.428528 571.776917,494.516937 577.274414,490.621826 
	C583.857971,485.957214 588.400452,487.573730 590.466370,495.299957 
	C591.832520,500.409058 590.873047,505.555756 591.510498,510.685120 
	C592.932312,522.126709 594.183899,533.502502 601.087463,543.312317 
	C602.012878,544.627319 602.896118,546.178955 601.971130,548.181580 
	C599.291748,548.181580 596.300903,548.845032 593.793701,548.026672 
	C589.995789,546.787048 587.677307,548.389465 585.655823,550.885864 
	C582.206726,555.145264 577.367249,556.752014 572.464417,558.221619 
	C568.850952,559.304688 565.981812,557.087341 563.443054,555.125305 
	C560.765869,553.056335 558.979309,553.525757 557.177429,555.926086 
	C553.381775,560.982300 547.578369,563.823364 543.425598,568.532715 
	C538.809326,573.767639 533.601746,570.662537 529.388855,568.156555 
	C525.179443,565.652710 523.338989,566.962219 520.204590,569.898621 
	C510.496552,578.993408 500.015167,586.745605 485.307617,582.849915 
	C481.057465,581.724121 478.075714,584.915588 475.004089,586.888489 
	C467.794342,591.519409 460.916443,596.663879 453.838776,601.504822 
	C450.602936,603.718079 448.894592,611.211243 451.036407,614.388489 
	C452.108215,615.978455 453.526917,616.020569 454.954376,615.211060 
	C468.606323,607.468506 483.929138,604.864319 498.817932,600.956238 
	C504.020111,599.590759 508.212646,596.054504 513.905945,595.411194 
	C522.295288,594.463135 530.182007,590.809753 538.654602,589.588562 
	C544.005005,588.817444 548.717590,585.242981 554.227173,584.713135 
	C566.054443,583.575867 576.807983,578.429016 587.969910,575.099182 
	C597.542969,572.243286 607.703064,571.945251 616.821899,567.916138 
	C626.075928,563.827271 636.627136,563.938416 645.454407,558.569946 
	C647.726135,557.188354 650.669250,557.984680 653.210449,557.814941 
	C661.135803,557.285889 668.226501,553.278381 676.169617,552.890686 
	C677.464233,554.966125 676.885620,556.545654 674.693970,557.145203 
	C661.952698,560.630493 649.821838,566.057129 636.580505,568.087952 
	C629.835144,569.122437 622.683167,569.944946 616.614075,573.736389 
	C611.742737,576.779602 605.880493,575.602600 600.829285,577.800232 
	C587.713074,583.506714 573.529602,585.776245 559.983521,590.172485 
	C551.142212,593.041870 542.255981,596.863525 532.634827,597.150391 
	C531.984070,597.169800 531.223755,597.259583 530.711853,597.607300 
	C526.204651,600.669067 521.082153,601.734192 515.851624,602.904968 
	C509.084351,604.419617 502.702728,608.113892 496.194153,609.563782 
	C484.337402,612.205078 473.752167,618.197998 461.948669,620.646790 
	C455.518921,621.980774 452.832672,625.696045 453.701569,632.123413 
	C455.962311,648.846252 460.825806,664.843384 466.808075,680.627380 
	C472.911774,696.731689 480.945831,711.831543 489.566498,726.586853 
	C494.812256,735.565552 501.824707,743.502136 507.909851,752.002625 
	C518.934509,767.403137 532.550781,780.348083 547.460449,791.724365 
	C557.033997,799.029114 567.637817,805.107544 579.502258,808.574829 
	C587.731567,810.979797 595.761475,814.042603 604.311035,815.271912 
	C618.899719,817.369568 633.370605,816.495239 647.784302,813.737244 
	C649.232483,813.460205 650.715759,813.366760 652.533081,813.058899 
M453.785614,462.537933 
	C454.392548,460.936768 454.957581,459.341370 452.790771,457.791718 
	C450.644806,461.077087 446.780609,460.750580 443.541748,461.510437 
	C433.542694,463.856262 424.893707,469.780945 414.854065,471.884705 
	C413.086487,472.255035 410.985504,472.126068 409.605347,473.062805 
	C403.893738,476.939423 397.275909,478.687317 391.014679,481.166840 
	C380.726990,485.240814 369.808716,487.859741 359.821014,492.517487 
	C348.558716,497.769684 336.059601,499.635284 325.291595,506.150513 
	C321.730408,508.305237 316.356506,514.005249 316.951935,518.072449 
	C317.272919,520.265137 316.177887,520.743774 315.118866,522.028809 
	C313.385254,524.132202 310.038483,525.179016 310.257477,528.727295 
	C310.672455,535.451355 310.372131,542.314331 311.691162,548.852783 
	C312.492981,552.827454 310.128143,556.914978 312.625397,560.512268 
	C314.321320,562.955261 314.730011,565.718811 315.156708,568.500732 
	C316.511871,577.335938 317.462067,586.251953 319.266205,594.992798 
	C320.443512,600.696472 323.137177,605.925537 328.419128,609.285767 
	C334.918976,613.420715 342.335754,614.448914 349.689697,615.623779 
	C361.128845,617.451355 372.518494,616.758850 383.888184,614.770447 
	C392.687561,613.231567 401.490326,611.418884 410.063354,609.179138 
	C416.991058,607.369263 423.854614,604.546143 430.656555,601.929016 
	C432.367950,601.270508 434.405975,600.712219 435.078918,598.918823 
	C436.883270,594.109924 438.504272,588.664062 437.624207,583.990967 
	C436.360596,577.281311 439.672424,571.167480 438.391479,564.570679 
	C437.968414,562.391968 436.647095,559.632080 437.778809,557.349731 
	C441.050934,550.750671 439.250244,543.538879 440.603088,536.696350 
	C442.033386,529.462097 441.236053,521.839722 444.452850,514.688293 
	C440.549957,511.970459 439.195160,509.375122 444.748596,507.082367 
	C446.175537,506.493195 446.225281,504.585266 446.912811,503.280884 
	C449.035767,499.253113 448.039825,494.881195 448.407745,490.689484 
	C449.229187,481.332367 453.534668,472.661255 453.785614,462.537933 
M323.914246,472.654968 
	C321.307892,473.714539 318.817169,475.039581 315.918182,475.326782 
	C314.169403,475.500031 312.752350,476.462097 312.646606,478.492584 
	C312.456573,482.141144 312.047333,485.804932 312.215332,489.439880 
	C312.549927,496.678864 318.956665,500.429047 325.234039,497.021606 
	C329.883270,494.497986 335.007233,493.006500 339.827637,491.183594 
	C353.174072,486.136505 367.137482,482.737823 380.142548,476.640411 
	C381.945557,475.795044 383.932220,475.263550 385.972626,475.568024 
	C387.597504,475.810516 388.879120,475.142548 390.183502,474.369537 
	C397.368713,470.111176 405.215759,467.969147 413.379456,466.406128 
	C415.787964,465.945007 419.325256,467.748108 420.324951,465.475464 
	C422.623596,460.249817 427.545227,459.744690 431.670441,458.417328 
	C439.078125,456.033600 445.809631,450.954010 454.273193,452.268311 
	C456.067749,452.546997 456.864319,450.865631 457.172852,449.370483 
	C459.087097,440.093262 461.252472,430.879639 463.910278,421.425873 
	C456.409760,426.868530 447.112732,426.772034 439.071655,430.873352 
	C431.299835,434.837280 422.405029,436.920532 414.233276,440.394165 
	C404.631470,444.475708 394.366608,446.559723 384.772247,450.577179 
	C381.874023,451.790771 378.886536,452.781708 376.044952,453.938995 
	C372.174622,455.515381 367.696930,455.232330 364.348541,457.488861 
	C359.129364,461.006042 353.133301,462.275970 347.434570,464.305054 
	C339.831360,467.012238 331.891724,468.768646 323.914246,472.654968 
M349.085999,429.049652 
	C341.673065,426.488190 334.653442,423.301666 329.702148,416.834869 
	C328.625671,415.428894 327.405792,414.329529 325.483032,415.192688 
	C322.901886,416.351440 320.296356,415.819611 317.768188,415.236786 
	C315.947998,418.656860 312.849213,421.548676 313.490112,425.502655 
	C314.125977,429.425659 313.059570,433.058319 312.726959,436.813629 
	C312.539612,438.929291 311.495270,441.150024 311.899292,443.103760 
	C313.199463,449.390167 312.667938,455.652039 312.377350,461.932617 
	C312.181030,466.176025 313.100677,466.769775 317.391235,465.507416 
	C321.156952,464.399475 324.342041,462.164429 328.173615,460.938110 
	C342.336853,456.404968 356.274261,451.192322 370.471191,446.657867 
	C391.371857,439.982361 411.758667,431.712799 432.565369,424.720398 
	C440.376282,422.095490 447.658020,418.203308 455.785828,416.199707 
	C460.017426,415.156555 465.674896,413.389709 467.574890,408.566467 
	C470.319702,401.598602 473.623749,394.753601 475.052246,387.213257 
	C474.556488,387.254883 474.127777,387.157745 473.960175,387.323944 
	C463.290009,397.904663 453.828003,409.725555 440.213318,417.149750 
	C435.110382,419.932434 429.605103,421.604919 424.562775,424.540741 
	C415.361908,429.897888 405.287170,430.420654 395.551727,426.015594 
	C392.362030,424.572357 389.859070,423.815582 386.376709,424.543091 
	C384.352264,424.966003 382.732666,425.987610 380.947205,426.645203 
	C370.799774,430.382629 360.397461,430.021454 349.085999,429.049652 
M347.209442,654.748169 
	C355.547150,649.460632 364.974365,646.321838 374.177399,643.541443 
	C392.251068,638.081055 408.928345,628.971436 427.225769,624.251465 
	C429.915253,623.557678 432.516968,622.173645 434.885254,620.675659 
	C437.690155,618.901550 437.202606,615.812683 436.079987,613.512756 
	C434.902496,611.100525 432.968811,613.201721 431.363953,613.759460 
	C424.306976,616.212280 417.506866,619.776245 410.448730,621.641357 
	C401.416229,624.028198 392.399841,626.853210 382.998230,628.108887 
	C373.687683,629.352295 364.597137,632.229126 355.014740,630.780640 
	C352.070709,630.335571 349.028168,630.037720 346.074005,630.256592 
	C336.330139,630.978577 327.300323,629.147461 319.300537,623.358765 
	C316.280640,621.173584 314.913361,622.573181 314.615875,625.468018 
	C314.347870,628.076294 314.567841,630.768799 314.852814,633.393677 
	C315.764557,641.793030 317.110840,650.157104 317.694458,658.576111 
	C318.105042,664.499329 319.898651,666.014893 325.541351,663.692810 
	C332.532104,660.816223 339.103241,656.941589 347.209442,654.748169 
M394.061188,308.304382 
	C393.457367,305.721191 391.029480,305.835114 389.280060,305.481842 
	C383.581818,304.331238 378.113586,302.969818 371.920532,304.194336 
	C361.647797,306.225494 351.820465,309.229584 342.161469,313.129456 
	C336.289551,315.500244 331.424622,319.660858 325.433197,321.851929 
	C320.853363,323.526733 318.994598,328.010620 319.735229,332.848450 
	C320.806000,339.842316 326.206024,343.581177 330.725250,348.049683 
	C332.635345,349.938385 334.057434,349.775848 336.350189,348.489746 
	C348.181396,341.853149 358.406860,332.832947 370.005829,325.924805 
	C378.460266,320.889557 386.219543,315.028412 394.061188,308.304382 
M514.568787,532.843323 
	C514.644531,528.547974 511.072998,525.573181 510.381866,521.717102 
	C509.804535,518.496155 508.182007,516.388733 505.587067,515.508118 
	C503.022980,514.637939 500.742065,516.518005 499.220886,518.559814 
	C488.849060,532.481750 486.163971,548.104065 489.447266,564.891663 
	C490.234619,568.917358 492.312225,570.846436 497.259186,570.248413 
	C505.077667,569.303101 509.339294,563.933594 514.139282,558.986755 
	C515.662964,557.416504 516.083679,555.475037 516.556885,553.257996 
	C518.013977,546.430786 515.782715,540.144104 514.568787,532.843323 
M494.063599,285.848785 
	C492.749512,281.741608 494.388062,277.633148 494.429260,273.542023 
	C494.485931,267.918671 493.847198,262.326874 493.943024,256.699219 
	C494.114899,246.609543 491.884888,236.766800 488.437958,226.646927 
	C477.893799,248.945755 481.317993,316.656097 487.900208,326.820831 
	C493.326263,314.031372 490.986420,299.894714 494.063599,285.848785 
M444.524933,365.927826 
	C440.621185,371.117035 435.381958,375.071869 430.640472,379.283875 
	C423.056458,386.020844 418.111237,394.451263 411.273621,402.597931 
	C422.177002,400.130310 430.110565,394.001434 438.801422,389.457031 
	C443.621277,386.936768 448.118561,383.771179 452.642181,380.720001 
	C458.193512,376.975677 464.009033,373.540161 468.564209,368.503754 
	C471.434814,365.329773 471.142761,359.848724 467.812042,358.655518 
	C464.020721,357.297333 459.457458,356.698639 456.307526,359.218567 
	C452.818756,362.009644 448.598572,363.024994 444.524933,365.927826 
M332.505310,371.073303 
	C325.500183,365.590118 316.301208,368.098724 315.493561,376.036499 
	C314.945923,381.418884 311.494537,386.745087 314.702759,392.382477 
	C315.103516,393.086639 314.445831,394.327271 314.499329,395.307251 
	C314.664581,398.334167 311.434540,401.920380 314.443024,404.185760 
	C317.367981,406.388184 320.250610,402.810730 322.976074,401.730530 
	C334.272522,397.253204 339.196777,381.841339 332.505310,371.073303 
M258.222229,626.629211 
	C258.500397,630.389221 255.957031,633.564941 256.038544,637.309448 
	C256.073883,638.933044 255.310135,640.780762 257.368500,641.634888 
	C259.198944,642.394531 260.496033,641.347290 261.662720,639.991760 
	C267.611969,633.079956 270.146729,624.865784 270.782562,615.962952 
	C270.970551,613.330994 270.242828,610.586487 271.329590,608.071960 
	C273.102570,603.969666 270.885773,601.304688 268.059143,597.807251 
	C263.836670,607.306763 260.035248,616.157227 258.222229,626.629211 
M358.607605,390.548431 
	C358.347473,391.450592 357.694031,392.386108 358.922699,393.264954 
	C368.969879,391.617249 376.878265,385.178040 387.152771,381.465942 
	C381.700623,378.754456 377.854858,380.154907 373.843506,381.295044 
	C368.075287,382.934479 364.707397,388.420868 358.607605,390.548431 
M441.283936,400.800964 
	C435.852692,404.370087 430.032532,407.154449 423.923309,409.339233 
	C419.459930,410.935455 415.046509,413.546356 412.443298,416.257874 
	C426.517517,413.389160 438.976166,407.616058 449.068176,397.183167 
	C446.689178,398.268982 444.310181,399.354797 441.283936,400.800964 
M486.242554,404.228271 
	C487.892578,403.691254 489.932526,404.486511 491.484985,402.521729 
	C490.092072,398.534943 490.384552,393.753693 486.532349,390.099548 
	C485.029480,394.137970 483.467804,397.739502 482.377563,401.478455 
	C481.680603,403.868683 482.091309,406.013153 486.242554,404.228271 
z"/>
<path fill="#000000" opacity="1.000000" stroke="none" 
	d="
M728.475586,542.193604 
	C723.093689,543.541504 718.013794,544.288818 713.101746,546.448059 
	C707.304504,548.996460 700.670837,549.385132 694.950745,552.530396 
	C693.659119,553.240662 691.749634,552.865173 691.095886,551.223938 
	C690.322754,549.282959 692.098328,548.207031 693.431274,548.134949 
	C700.310974,547.763062 705.806335,543.020264 712.715088,542.464783 
	C717.075134,542.114258 721.303406,540.148071 725.595581,538.923401 
	C729.144775,537.910828 732.721924,537.463623 736.973206,538.508240 
	C734.364990,540.810181 730.859497,539.879944 728.475586,542.193604 
z"/>
<path fill="#000000" opacity="1.000000" stroke="none" 
	d="
M684.238892,550.375305 
	C685.852356,549.559509 687.152100,549.265564 687.870361,550.950012 
	C688.476624,552.371826 687.993530,553.678772 686.654907,554.344421 
	C684.395752,555.467773 682.029541,557.108643 679.597595,554.649414 
	C680.146240,551.986816 682.331299,551.583801 684.238892,550.375305 
z"/>
</svg>